<?xml version="1.0" encoding="UTF-8"?>
<svg width="40" height="40" viewBox="0 0 40 40" fill="none" xmlns="http://www.w3.org/2000/svg">
  <circle cx="20" cy="20" r="19" stroke="#EA4343" stroke-width="2"/>
  <path d="M20 22C23.866 22 27 18.866 27 15C27 11.134 23.866 8 20 8C16.134 8 13 11.134 13 15C13 18.866 16.134 22 20 22Z" fill="#EA4343"/>
  <path d="M32 34C32 29.0294 28.4183 25 24 25H16C11.5817 25 8 29.0294 8 34V36C8 37.1046 8.89543 38 10 38H30C31.1046 38 32 37.1046 32 36V34Z" fill="#EA4343"/>
</svg> 