<?xml version="1.0" encoding="UTF-8"?>
<svg width="40" height="40" viewBox="0 0 40 40" fill="none" xmlns="http://www.w3.org/2000/svg">
  <circle cx="20" cy="20" r="19" stroke="#EA4343" stroke-width="2"/>
  <path d="M20 8C16.6863 8 14 10.6863 14 14C14 17.3137 16.6863 20 20 20C23.3137 20 26 17.3137 26 14C26 10.6863 23.3137 8 20 8Z" fill="#EA4343"/>
  <path d="M10 36C10 31.5817 13.5817 28 18 28H22C26.4183 28 30 31.5817 30 36V37C30 37.5523 29.5523 38 29 38H11C10.4477 38 10 37.5523 10 37V36Z" fill="#EA4343"/>
</svg> 